<svg xmlns="http://www.w3.org/2000/svg" xmlns:xlink="http://www.w3.org/1999/xlink" width="64" height="62" viewBox="0 0 64 62"><defs><path id="a" d="M19.697.638h25.26v25.718h-25.26z"/></defs><clipPath id="b"><use xlink:href="#a" overflow="visible"/></clipPath><g clip-path="url(#b)"><defs><path id="c" d="M33.054 25.784c-.58.682-1.604.765-2.287.186L20.27 17.047c-.683-.58-.766-1.604-.186-2.287L31.602 1.21c.58-.683 1.603-.766 2.286-.186l10.498 8.924c.682.58.765 1.604.186 2.287l-11.518 13.55z"/></defs><clipPath id="d"><use xlink:href="#c" overflow="visible"/></clipPath><linearGradient id="e" gradientUnits="userSpaceOnUse" x1="-577.082" y1="435.912" x2="-576.676" y2="435.912" gradientTransform="matrix(0 34 34 0 -14788.604 19625.537)"><stop offset="0" stop-color="#62BE70"/><stop offset="1" stop-color="#41AF66"/></linearGradient><path clip-path="url(#d)" fill="url(#e)" d="M19.504.444H45.15V26.55H19.505z"/></g><defs><path id="f" d="M35.902 12.164h21.566v17.724H35.902z"/></defs><clipPath id="g"><use xlink:href="#f" overflow="visible"/></clipPath><g clip-path="url(#g)"><defs><path id="h" d="M37.46 29.175c-.895-.036-1.592-.79-1.556-1.686l.55-13.768c.038-.896.792-1.592 1.687-1.557l17.77.712c.896.036 1.593.79 1.557 1.686l-.55 13.768c-.037.896-.792 1.592-1.687 1.557l-17.77-.712z"/></defs><clipPath id="i"><use xlink:href="#h" overflow="visible"/></clipPath><linearGradient id="j" gradientUnits="userSpaceOnUse" x1="-574.918" y1="425.317" x2="-574.513" y2="425.317" gradientTransform="matrix(34.5 -22.5 -22.5 -34.5 29444.168 1763.357)"><stop offset="0" stop-color="#EBC821"/><stop offset="1" stop-color="#EDD51C"/></linearGradient><path clip-path="url(#i)" fill="url(#j)" d="M27.727 17.44l23.32-15.21 14.596 22.382-23.32 15.208z"/></g><defs><path id="k" d="M38.13 23.963H63v25.732H38.13z"/></defs><clipPath id="l"><use xlink:href="#k" overflow="visible"/></clipPath><g clip-path="url(#l)"><defs><path id="m" d="M38.444 34.688c-.53-.723-.374-1.737.348-2.27l11.114-8.142c.723-.53 1.738-.373 2.268.35L62.686 38.97c.53.723.373 1.738-.35 2.267l-11.114 8.145c-.723.528-1.737.372-2.267-.35l-10.51-14.344z"/></defs><clipPath id="n"><use xlink:href="#m" overflow="visible"/></clipPath><linearGradient id="o" gradientUnits="userSpaceOnUse" x1="-575.399" y1="429.782" x2="-574.993" y2="429.782" gradientTransform="matrix(59.499 20 20 -59.499 25675.938 37111.258)"><stop offset="0" stop-color="#F79421"/><stop offset="1" stop-color="#FAA21F"/></linearGradient><path clip-path="url(#n)" fill="url(#o)" d="M40.482 16.105l30.635 10.297-10.47 31.15-30.635-10.298z"/></g><defs><path id="p" d="M29.578 37.397h21.12v23.965h-21.12z"/></defs><clipPath id="q"><use xlink:href="#p" overflow="visible"/></clipPath><g clip-path="url(#q)"><defs><path id="r" d="M34.188 38.605c.23-.867 1.118-1.383 1.983-1.154l13.32 3.53c.866.23 1.383 1.118 1.153 1.984l-4.555 17.19c-.23.867-1.118 1.382-1.983 1.153l-13.32-3.53c-.866-.23-1.38-1.117-1.152-1.984l4.555-17.188z"/></defs><clipPath id="s"><use xlink:href="#r" overflow="visible"/></clipPath><linearGradient id="t" gradientUnits="userSpaceOnUse" x1="-576.416" y1="434.274" x2="-576.01" y2="434.274" gradientTransform="matrix(14.5 36.5 36.5 -14.5 -7457.661 27373.391)"><stop offset="0" stop-color="#D3225E"/><stop offset="1" stop-color="#EA2968"/></linearGradient><path clip-path="url(#s)" fill="url(#t)" d="M47.946 29.856l11.27 28.366-26.886 10.68-11.27-28.366z"/></g><defs><path id="u" d="M11.524 37.752h25.19v23.254h-25.19z"/></defs><clipPath id="v"><use xlink:href="#u" overflow="visible"/></clipPath><g clip-path="url(#v)"><defs><path id="w" d="M28.573 37.904c.813-.38 1.78-.028 2.157.783l5.83 12.485c.38.81.03 1.777-.783 2.156l-16.113 7.525c-.813.38-1.778.028-2.156-.783l-5.83-12.485c-.38-.81-.028-1.777.783-2.156l16.113-7.526z"/></defs><clipPath id="x"><use xlink:href="#w" overflow="visible"/></clipPath><linearGradient id="y" gradientUnits="userSpaceOnUse" x1="-581.166" y1="434.971" x2="-580.76" y2="434.971" gradientTransform="matrix(-15.5 34.5 34.5 15.5 -23984.926 13345.304)"><stop offset="0" stop-color="#8D5D8B"/><stop offset="1" stop-color="#A0699D"/></linearGradient><path clip-path="url(#x)" fill="url(#y)" d="M45.8 41.507l-13.168 29.31L2.436 57.25l13.168-29.31z"/></g><defs><path id="z" d="M1 24.87h25.49v23.944H1z"/></defs><clipPath id="A"><use xlink:href="#z" overflow="visible"/></clipPath><g clip-path="url(#A)"><defs><path id="B" d="M25.657 33.743c.782.437 1.062 1.425.626 2.207l-6.715 12.032c-.437.782-1.425 1.063-2.207.627L1.833 39.94c-.782-.436-1.062-1.424-.626-2.207l6.715-12.03c.438-.783 1.426-1.064 2.208-.626l15.53 8.666z"/></defs><clipPath id="C"><use xlink:href="#B" overflow="visible"/></clipPath><linearGradient id="D" gradientUnits="userSpaceOnUse" x1="-584.881" y1="430.805" x2="-584.476" y2="430.805" gradientTransform="matrix(-38.5 8 8 38.5 -25936.379 -11873.18)"><stop offset="0" stop-color="#3064A3"/><stop offset="1" stop-color="#3773B9"/></linearGradient><path clip-path="url(#C)" fill="url(#D)" d="M31.58 48.033l-29.736 6.18L-4.09 25.65l29.735-6.18z"/></g><defs><path id="E" d="M7.45 9.34h20.023v23.236H7.45z"/></defs><clipPath id="F"><use xlink:href="#E" overflow="visible"/></clipPath><g clip-path="url(#F)"><defs><path id="G" d="M27.446 28.156c.163.88-.42 1.727-1.3 1.89l-13.55 2.502c-.88.162-1.726-.42-1.89-1.3L7.477 13.76c-.162-.88.42-1.728 1.302-1.89l13.55-2.503c.88-.162 1.727.42 1.89 1.3l3.228 17.49z"/></defs><clipPath id="H"><use xlink:href="#G" overflow="visible"/></clipPath><linearGradient id="I" gradientUnits="userSpaceOnUse" x1="-582.914" y1="426.371" x2="-582.508" y2="426.371" gradientTransform="matrix(-39.001 -33.001 -33.001 39.001 -8634.457 -35834.41)"><stop offset="0" stop-color="#0096D0"/><stop offset="1" stop-color="#00B9F1"/></linearGradient><path clip-path="url(#H)" fill="url(#I)" d="M19.14 42.718L-4.276 22.903 15.78-.802 39.2 19.013z"/></g></svg>