<svg xmlns="http://www.w3.org/2000/svg" width="161" height="45" viewBox="0 0 161 45"><linearGradient id="a" gradientUnits="userSpaceOnUse" x1="21.772" y1="4.338" x2="21.772" y2="13.921"><stop offset="0" stop-color="#62BE70"/><stop offset="1" stop-color="#41AF66"/></linearGradient><path fill="url(#a)" d="M22.3 18.9c-.4.5-1.1.5-1.6.1l-7.3-6.2c-.5-.4-.5-1.1-.1-1.6l8-9.4c.4-.5 1.1-.5 1.6-.1l7.3 6.2c.5.4.5 1.1.1 1.6l-8 9.4z"/><linearGradient id="b" gradientUnits="userSpaceOnUse" x1="26.957" y1="18.694" x2="36.681" y2="12.352"><stop offset="0" stop-color="#EBC821"/><stop offset="1" stop-color="#EDD51C"/></linearGradient><path fill="url(#b)" d="M25.3 21.2c-.6 0-1.1-.5-1.1-1.2l.4-9.6c0-.6.5-1.1 1.2-1.1l12.3.5c.6 0 1.1.5 1.1 1.2l-.4 9.6c0 .6-.5 1.1-1.2 1.1l-12.3-.5z"/><linearGradient id="c" gradientUnits="userSpaceOnUse" x1="24.173" y1="23.097" x2="40.942" y2="28.734"><stop offset="0" stop-color="#F79421"/><stop offset="1" stop-color="#FAA21F"/></linearGradient><path fill="url(#c)" d="M26 25.1c-.4-.5-.3-1.2.2-1.6l7.7-5.7c.5-.4 1.2-.3 1.6.2l7.3 10c.4.5.3 1.2-.2 1.6l-7.7 5.7c-.5.4-1.2.3-1.6-.2l-7.3-10z"/><linearGradient id="d" gradientUnits="userSpaceOnUse" x1="23.827" y1="26.782" x2="27.914" y2="37.07"><stop offset="0" stop-color="#D3235E"/><stop offset="1" stop-color="#EB2968"/></linearGradient><path fill="url(#d)" d="M23.1 27.8c.2-.6.8-1 1.4-.8l9.3 2.5c.6.2 1 .8.8 1.4l-3.2 11.9c-.2.6-.8 1-1.4.8l-9.3-2.5c-.6-.2-1-.8-.8-1.4l3.2-11.9z"/><linearGradient id="e" gradientUnits="userSpaceOnUse" x1="19.871" y1="26.807" x2="15.502" y2="36.53"><stop offset="0" stop-color="#8D5D8B"/><stop offset="1" stop-color="#A0699D"/></linearGradient><path fill="url(#e)" d="M19.2 27.3c.6-.3 1.2 0 1.5.5l4.1 8.7c.3.6 0 1.2-.5 1.5L13 43.2c-.6.3-1.2 0-1.5-.5L7.4 34c-.3-.6 0-1.2.5-1.5l11.3-5.2z"/><linearGradient id="f" gradientUnits="userSpaceOnUse" x1="18.914" y1="24.47" x2="8.063" y2="26.725"><stop offset="0" stop-color="#3064A3"/><stop offset="1" stop-color="#3773B9"/></linearGradient><path fill="url(#f)" d="M17.1 24.4c.5.3.7 1 .4 1.5l-4.7 8.4c-.3.5-1 .7-1.5.4l-10.8-6c-.5-.3-.7-1-.4-1.5l4.7-8.4c.3-.5 1-.7 1.5-.4l10.8 6z"/><linearGradient id="g" gradientUnits="userSpaceOnUse" x1="19.507" y1="22.346" x2="8.515" y2="13.046"><stop offset="0" stop-color="#0096D0"/><stop offset="1" stop-color="#00B9F1"/></linearGradient><path fill="url(#g)" d="M18.4 20.5c.1.6-.3 1.2-.9 1.3l-9.4 1.7c-.6.1-1.2-.3-1.3-.9L4.5 10.5c-.1-.6.3-1.2.9-1.3l9.4-1.7c.6-.1 1.2.3 1.3.9l2.3 12.1z"/><path d="M72.9 18.4c0 1.9-1 3.6-2.3 4.3v.1c1.4.7 2.8 2.4 2.8 4.6v1.2c0 2.9-2 5.5-5.8 5.6-.7 0-1.5.1-2.3.1h-11V11.7H67c3.9 0 5.9 2.5 5.9 5.5v1.2zm-13 2.5h5.2c1.5 0 2.2-1.2 2.2-2.7 0-1.3-1-2.2-2.2-2.2h-5.2v4.9zm7.9 6.3c0-1.2-.9-2.1-2.3-2.1H60v5.1h4.6c2.2 0 3.2-.6 3.2-2.3v-.7zM84.3 31c1.6 0 3.8-.5 4.7-1.6l2.5 2.5c-1.8 1.7-4 2.8-7.3 2.8-6.6 0-8.7-3.7-8.7-7.2v-2.6c0-3.6 2.9-7.5 8.2-7.5 5 0 7.6 2.4 7.6 5.4 0 3.2-2.9 5.6-6.9 5.6h-3.5c0 1.7 1.5 2.6 3.4 2.6zm-.4-6.2c1.4 0 2.5-.8 2.5-2.1 0-1.1-.9-1.8-2.3-1.8-1.7 0-3.2 1.3-3.2 4h3zM109.5 34.4h-5.3V26c0-1.7-.1-4.2-2.7-4.2-1.6 0-2.8 1.2-2.8 2.7v9.8h-5.3V17.5h5.4v2h.1c.8-1.3 2.7-2.2 4.7-2.2 3.9 0 5.8 2.3 5.8 6.7v10.4zM120 31c1.6 0 3.8-.5 4.7-1.6l2.5 2.5c-1.8 1.7-4 2.8-7.3 2.8-6.6 0-8.7-3.7-8.7-7.2v-2.6c0-3.6 2.9-7.5 8.2-7.5 5 0 7.6 2.4 7.6 5.4 0 3.2-2.9 5.6-6.9 5.6h-3.5c.1 1.7 1.6 2.6 3.4 2.6zm-.4-6.2c1.4 0 2.5-.8 2.5-2.1 0-1.1-.9-1.8-2.3-1.8-1.7 0-3.2 1.3-3.2 4h3zM148.6 29.9h.6v4.5h-2.3c-4 0-5.7-2.7-5.7-6.5v-6.7h-6v13.1h-5.3V21.2h-2.2v-3.8h2.2v-.6c0-3.7 2.8-5.3 6.6-5.3h2.2v3.2h-1.2c-1.3 0-2.2.7-2.2 2.1v.6h11.4v10.5c-.1 1.2.6 2 1.9 2zm-4.5-18.7c1.4 0 2.7.9 2.7 2.3s-1.2 2.2-2.7 2.2c-1.4 0-2.6-.8-2.6-2.2-.1-1.4 1.1-2.3 2.6-2.3zM161 17.5v3.6h-3.4v6.6c0 1.5.5 2.3 2.2 2.3h1.2v4.4h-1.4c-5.3 0-7.3-2-7.3-6.7v-6.6h-2.4v-3.6h2.4v-4.3h5.3v4.3h3.4z"/></svg>