<?xml version="1.0" encoding="utf-8"?>
<!-- Generator: Adobe Illustrator 17.0.1, SVG Export Plug-In . SVG Version: 6.00 Build 0)  -->
<!DOCTYPE svg PUBLIC "-//W3C//DTD SVG 1.1//EN" "http://www.w3.org/Graphics/SVG/1.1/DTD/svg11.dtd">
<svg version="1.1" id="Layer_1" xmlns="http://www.w3.org/2000/svg" xmlns:xlink="http://www.w3.org/1999/xlink" x="0px" y="0px"
	 width="64px" height="62px" viewBox="0 0 64 62" enable-background="new 0 0 64 62" xml:space="preserve">
<g>
	<g>
		<g>
			<defs>
				<rect id="SVGID_1_" x="19.697" y="0.638" width="25.26" height="25.718"/>
			</defs>
			<clipPath id="SVGID_2_">
				<use xlink:href="#SVGID_1_"  overflow="visible"/>
			</clipPath>
			<g clip-path="url(#SVGID_2_)">
				<defs>
					<path id="SVGID_3_" d="M33.054,25.784c-0.581,0.682-1.604,0.765-2.287,0.186l-10.498-8.923
						c-0.682-0.581-0.765-1.604-0.185-2.287L31.602,1.209c0.58-0.682,1.603-0.765,2.286-0.185l10.498,8.924
						c0.682,0.58,0.765,1.604,0.186,2.287L33.054,25.784z"/>
				</defs>
				<clipPath id="SVGID_4_">
					<use xlink:href="#SVGID_3_"  overflow="visible"/>
				</clipPath>
				
					<linearGradient id="SVGID_5_" gradientUnits="userSpaceOnUse" x1="-577.0819" y1="435.9123" x2="-576.6763" y2="435.9123" gradientTransform="matrix(0 33.9998 33.9998 0 -14788.6045 19625.5371)">
					<stop  offset="0" style="stop-color:#62BE70"/>
					<stop  offset="1" style="stop-color:#41AF66"/>
				</linearGradient>
				<rect x="19.504" y="0.444" clip-path="url(#SVGID_4_)" fill="url(#SVGID_5_)" width="25.647" height="26.105"/>
			</g>
		</g>
	</g>
	<g>
		<g>
			<defs>
				<rect id="SVGID_6_" x="35.902" y="12.164" width="21.566" height="17.724"/>
			</defs>
			<clipPath id="SVGID_7_">
				<use xlink:href="#SVGID_6_"  overflow="visible"/>
			</clipPath>
			<g clip-path="url(#SVGID_7_)">
				<defs>
					<path id="SVGID_8_" d="M37.46,29.175c-0.895-0.036-1.592-0.791-1.556-1.686l0.551-13.767c0.037-0.896,0.791-1.592,1.686-1.557
						l17.77,0.712c0.895,0.036,1.592,0.79,1.556,1.686l-0.551,13.768c-0.036,0.895-0.791,1.591-1.686,1.556L37.46,29.175z"/>
				</defs>
				<clipPath id="SVGID_9_">
					<use xlink:href="#SVGID_8_"  overflow="visible"/>
				</clipPath>
				
					<linearGradient id="SVGID_10_" gradientUnits="userSpaceOnUse" x1="-574.9185" y1="425.3174" x2="-574.5129" y2="425.3174" gradientTransform="matrix(34.5001 -22.5 -22.5 -34.5001 29444.168 1763.3571)">
					<stop  offset="0" style="stop-color:#EBC821"/>
					<stop  offset="1" style="stop-color:#EDD51C"/>
				</linearGradient>
				<polygon clip-path="url(#SVGID_9_)" fill="url(#SVGID_10_)" points="27.727,17.439 51.046,2.231 65.643,24.612 42.324,39.82 
									"/>
			</g>
		</g>
	</g>
	<g>
		<g>
			<defs>
				<rect id="SVGID_11_" x="38.13" y="23.963" width="24.87" height="25.732"/>
			</defs>
			<clipPath id="SVGID_12_">
				<use xlink:href="#SVGID_11_"  overflow="visible"/>
			</clipPath>
			<g clip-path="url(#SVGID_12_)">
				<defs>
					<path id="SVGID_13_" d="M38.444,34.688c-0.531-0.723-0.374-1.737,0.348-2.269l11.114-8.143c0.723-0.53,1.738-0.373,2.268,0.349
						L62.686,38.97c0.529,0.723,0.373,1.738-0.35,2.267l-11.114,8.145c-0.723,0.528-1.737,0.372-2.267-0.351L38.444,34.688z"/>
				</defs>
				<clipPath id="SVGID_14_">
					<use xlink:href="#SVGID_13_"  overflow="visible"/>
				</clipPath>
				
					<linearGradient id="SVGID_15_" gradientUnits="userSpaceOnUse" x1="-575.3987" y1="429.7819" x2="-574.9931" y2="429.7819" gradientTransform="matrix(59.499 19.9997 19.9997 -59.499 25675.9375 37111.2578)">
					<stop  offset="0" style="stop-color:#F79421"/>
					<stop  offset="1" style="stop-color:#FAA21F"/>
				</linearGradient>
				<polygon clip-path="url(#SVGID_14_)" fill="url(#SVGID_15_)" points="40.482,16.105 71.117,26.402 60.647,57.552 30.012,47.254 
									"/>
			</g>
		</g>
	</g>
	<g>
		<g>
			<defs>
				<rect id="SVGID_16_" x="29.578" y="37.397" width="21.119" height="23.965"/>
			</defs>
			<clipPath id="SVGID_17_">
				<use xlink:href="#SVGID_16_"  overflow="visible"/>
			</clipPath>
			<g clip-path="url(#SVGID_17_)">
				<defs>
					<path id="SVGID_18_" d="M34.188,38.605c0.23-0.867,1.118-1.383,1.983-1.154l13.32,3.529c0.865,0.229,1.382,1.118,1.152,1.984
						l-4.555,17.19c-0.231,0.867-1.118,1.382-1.983,1.153l-13.32-3.53c-0.866-0.229-1.381-1.117-1.152-1.984L34.188,38.605z"/>
				</defs>
				<clipPath id="SVGID_19_">
					<use xlink:href="#SVGID_18_"  overflow="visible"/>
				</clipPath>
				
					<linearGradient id="SVGID_20_" gradientUnits="userSpaceOnUse" x1="-576.4156" y1="434.2735" x2="-576.0101" y2="434.2735" gradientTransform="matrix(14.5001 36.5001 36.5001 -14.5001 -7457.6611 27373.3906)">
					<stop  offset="0" style="stop-color:#D3225E"/>
					<stop  offset="1" style="stop-color:#EA2968"/>
				</linearGradient>
				<polygon clip-path="url(#SVGID_19_)" fill="url(#SVGID_20_)" points="47.946,29.856 59.215,58.222 32.33,68.903 21.061,40.536 
									"/>
			</g>
		</g>
	</g>
	<g>
		<g>
			<defs>
				<rect id="SVGID_21_" x="11.524" y="37.752" width="25.189" height="23.254"/>
			</defs>
			<clipPath id="SVGID_22_">
				<use xlink:href="#SVGID_21_"  overflow="visible"/>
			</clipPath>
			<g clip-path="url(#SVGID_22_)">
				<defs>
					<path id="SVGID_23_" d="M28.573,37.904c0.813-0.379,1.779-0.028,2.157,0.783l5.831,12.485c0.378,0.811,0.028,1.777-0.784,2.156
						l-16.113,7.525c-0.813,0.379-1.778,0.028-2.156-0.783l-5.83-12.485c-0.379-0.811-0.028-1.777,0.783-2.156L28.573,37.904z"/>
				</defs>
				<clipPath id="SVGID_24_">
					<use xlink:href="#SVGID_23_"  overflow="visible"/>
				</clipPath>
				
					<linearGradient id="SVGID_25_" gradientUnits="userSpaceOnUse" x1="-581.1658" y1="434.9708" x2="-580.7602" y2="434.9708" gradientTransform="matrix(-15.5 34.4999 34.4999 15.5 -23984.9258 13345.3037)">
					<stop  offset="0" style="stop-color:#8D5D8B"/>
					<stop  offset="1" style="stop-color:#A0699D"/>
				</linearGradient>
				<polygon clip-path="url(#SVGID_24_)" fill="url(#SVGID_25_)" points="45.801,41.507 32.632,70.817 2.436,57.251 15.604,27.941 
									"/>
			</g>
		</g>
	</g>
	<g>
		<g>
			<defs>
				<rect id="SVGID_26_" x="1" y="24.87" width="25.489" height="23.944"/>
			</defs>
			<clipPath id="SVGID_27_">
				<use xlink:href="#SVGID_26_"  overflow="visible"/>
			</clipPath>
			<g clip-path="url(#SVGID_27_)">
				<defs>
					<path id="SVGID_28_" d="M25.657,33.743c0.782,0.437,1.062,1.425,0.626,2.207l-6.715,12.032
						c-0.437,0.782-1.425,1.063-2.207,0.627L1.832,39.94c-0.782-0.436-1.062-1.424-0.626-2.207l6.715-12.031
						c0.437-0.782,1.425-1.063,2.207-0.625L25.657,33.743z"/>
				</defs>
				<clipPath id="SVGID_29_">
					<use xlink:href="#SVGID_28_"  overflow="visible"/>
				</clipPath>
				
					<linearGradient id="SVGID_30_" gradientUnits="userSpaceOnUse" x1="-584.881" y1="430.8051" x2="-584.4756" y2="430.8051" gradientTransform="matrix(-38.5003 8.0001 8.0001 38.5003 -25936.3789 -11873.1797)">
					<stop  offset="0" style="stop-color:#3064A3"/>
					<stop  offset="1" style="stop-color:#3773B9"/>
				</linearGradient>
				<polygon clip-path="url(#SVGID_29_)" fill="url(#SVGID_30_)" points="31.581,48.033 1.844,54.213 -4.091,25.649 25.645,19.47 
									"/>
			</g>
		</g>
	</g>
	<g>
		<g>
			<defs>
				<rect id="SVGID_31_" x="7.449" y="9.341" width="20.024" height="23.235"/>
			</defs>
			<clipPath id="SVGID_32_">
				<use xlink:href="#SVGID_31_"  overflow="visible"/>
			</clipPath>
			<g clip-path="url(#SVGID_32_)">
				<defs>
					<path id="SVGID_33_" d="M27.446,28.156c0.163,0.881-0.419,1.727-1.3,1.889l-13.549,2.503c-0.881,0.162-1.727-0.419-1.89-1.301
						L7.477,13.76c-0.163-0.881,0.419-1.728,1.301-1.891l13.549-2.502c0.881-0.162,1.728,0.42,1.89,1.3L27.446,28.156z"/>
				</defs>
				<clipPath id="SVGID_34_">
					<use xlink:href="#SVGID_33_"  overflow="visible"/>
				</clipPath>
				
					<linearGradient id="SVGID_35_" gradientUnits="userSpaceOnUse" x1="-582.9138" y1="426.3714" x2="-582.5082" y2="426.3714" gradientTransform="matrix(-39.0006 -33.0005 -33.0005 39.0006 -8634.457 -35834.4102)">
					<stop  offset="0" style="stop-color:#0096D0"/>
					<stop  offset="1" style="stop-color:#00B9F1"/>
				</linearGradient>
				<polygon clip-path="url(#SVGID_34_)" fill="url(#SVGID_35_)" points="19.141,42.718 -4.277,22.903 15.781,-0.802 39.199,19.013 
									"/>
			</g>
		</g>
	</g>
</g>
</svg>
