<svg xmlns="http://www.w3.org/2000/svg" width="30" height="30" viewBox="5 -5 30 30" enable-background="new 5 -5 30 30"><path fill="#B7B7B7" d="M34.8 10c0 8.2-6.6 14.8-14.8 14.8S5.2 18.2 5.2 10 11.8-4.8 20-4.8 34.8 1.8 34.8 10zm-3.7-5.4c-.8.3-1.6.6-2.4.7.9-.5 1.5-1.3 1.8-2.3-.8.5-1.7.8-2.6 1-.8-.8-1.9-1.3-3.1-1.3-2.3 0-4.2 1.9-4.2 4.2 0 .3 0 .7.1 1-3.5-.2-6.6-1.9-8.7-4.4-.3.7-.6 1.4-.6 2.1 0 1.5.7 2.8 1.9 3.5-.7 0-1.3-.2-1.9-.5 0 2.1 1.4 3.7 3.4 4.2-.3.1-.7.1-1.1.1-.3 0-.6 0-.8-.1.5 1.7 2.1 2.8 3.9 2.9-1.4 1.1-3.2 1.9-5.2 1.9-.3 0-.7 0-1-.1 1.9 1.2 4.1 1.9 6.4 1.9 7.8 0 12-6.4 12-12v-.6c.9-.6 1.5-1.4 2.1-2.2z"/></svg>