<?xml version="1.0" encoding="utf-8"?>
<!-- Generator: Adobe Illustrator 18.1.1, SVG Export Plug-In . SVG Version: 6.00 Build 0)  -->
<!DOCTYPE svg PUBLIC "-//W3C//DTD SVG 1.1//EN" "http://www.w3.org/Graphics/SVG/1.1/DTD/svg11.dtd">
<svg version="1.1" id="Layer_1" xmlns="http://www.w3.org/2000/svg" xmlns:xlink="http://www.w3.org/1999/xlink" x="0px" y="0px"
	 width="30px" height="30px" viewBox="5 -5 30 30" enable-background="new 5 -5 30 30" xml:space="preserve">
<g>
	<path fill="#B7B7B7" d="M34.8,10c0,8.2-6.6,14.8-14.8,14.8S5.2,18.2,5.2,10S11.8-4.8,20-4.8S34.8,1.8,34.8,10z M31.1,4.6
		c-0.8,0.3-1.6,0.6-2.4,0.7c0.9-0.5,1.5-1.3,1.8-2.3c-0.8,0.5-1.7,0.8-2.6,1c-0.8-0.8-1.9-1.3-3.1-1.3c-2.3,0-4.2,1.9-4.2,4.2
		c0,0.3,0,0.7,0.1,1c-3.5-0.2-6.6-1.9-8.7-4.4c-0.3,0.7-0.6,1.4-0.6,2.1c0,1.5,0.7,2.8,1.9,3.5c-0.7,0-1.3-0.2-1.9-0.5v0
		c0,2.1,1.4,3.7,3.4,4.2c-0.3,0.1-0.7,0.1-1.1,0.1c-0.3,0-0.6,0-0.8-0.1c0.5,1.7,2.1,2.8,3.9,2.9c-1.4,1.1-3.2,1.9-5.2,1.9
		c-0.3,0-0.7,0-1-0.1c1.9,1.2,4.1,1.9,6.4,1.9c7.8,0,12-6.4,12-12c0-0.2,0-0.4,0-0.6C29.9,6.2,30.5,5.4,31.1,4.6z"/>
</g>
</svg>
