<svg xmlns="http://www.w3.org/2000/svg" width="292" height="44" viewBox="0 0 292 44"><path fill="#935D8F" d="M0 0h292v44H0z"/><g fill="#fff"><path d="M28.5 14.9h1.4l6 13.3h-1.6l-1.5-3.5h-7.2L24 28.2h-1.5l6-13.3zm3.7 8.5l-3-6.7-3 6.7h6zM43.2 15h1.6l3.8 11 3.6-11h1.2L57 26l3.8-11h1.6l-4.7 13.3h-1.3l-3.6-10.7-3.6 10.7H48L43.2 15zM63 23.4c0-2.8 2-5.1 4.7-5.1 2.9 0 4.5 2.3 4.5 5.1v.5h-7.7c.2 2.1 1.7 3.3 3.4 3.3 1.3 0 2.3-.5 3.1-1.4l.9.8c-1 1.1-2.2 1.8-4 1.8-2.7 0-4.9-2-4.9-5zm7.7-.6c-.2-1.8-1.2-3.3-3.1-3.3-1.7 0-3 1.4-3.2 3.3h6.3zM74.1 23.4c0-2.8 2-5.1 4.7-5.1 2.9 0 4.5 2.3 4.5 5.1v.5h-7.7c.2 2.1 1.7 3.3 3.4 3.3 1.3 0 2.3-.5 3.1-1.4l.9.8c-1 1.1-2.2 1.8-4 1.8-2.7 0-4.9-2-4.9-5zm7.8-.6c-.2-1.8-1.2-3.3-3.1-3.3-1.7 0-3 1.4-3.2 3.3h6.3zM85.9 14.4h1.5v9.5l5.3-5.5h1.8l-4.1 4.2 4.2 5.6h-1.7l-3.5-4.5-2 2v2.5h-1.5V14.4zM95.9 18.6c.9-.3 1.3-.8 1.3-1.6h-.7v-2h1.7v1.7c0 1.5-.7 2.3-2.1 2.6l-.2-.7zM99.9 27l.7-1c1.1.8 2.2 1.2 3.4 1.2 1.2 0 2-.6 2-1.5 0-1-1.1-1.4-2.4-1.7-1.5-.4-3.2-1-3.2-2.8 0-1.7 1.4-2.8 3.3-2.8 1.2 0 2.5.4 3.5 1.1l-.7 1.1c-.9-.6-1.9-.9-2.9-.9-1.1 0-1.9.6-1.9 1.4 0 .9 1.2 1.3 2.5 1.7 1.5.5 3.1 1 3.1 2.8 0 1.8-1.5 2.9-3.5 2.9-1.3-.1-2.8-.7-3.9-1.5zM115 15h1.6l3.8 11 3.6-11h1.2l3.6 11 3.8-11h1.6l-4.7 13.3h-1.3l-3.6-10.7-3.6 10.7h-1.2L115 15zM134.8 23.4c0-2.8 2.1-5.1 5.1-5.1 2.9 0 5.1 2.3 5.1 5 0 2.8-2.2 5.1-5.1 5.1-3 0-5.1-2.3-5.1-5zm8.6 0c0-2.1-1.6-3.8-3.6-3.8-2.1 0-3.6 1.7-3.6 3.8 0 2.1 1.5 3.8 3.6 3.8 2.2-.1 3.6-1.8 3.6-3.8zM147.5 18.5h1.5V21c.7-1.6 2.1-2.8 4-2.7v1.6h-.1c-2.1 0-3.9 1.5-3.9 4.5v3.9h-1.5v-9.8zM155.7 25.6v-5.9h-1.4v-1.3h1.4v-2.9h1.5v2.9h3.1v1.3h-3.1v5.7c0 1.2.7 1.6 1.6 1.6.5 0 .9-.1 1.4-.3V28c-.5.3-1.1.4-1.8.4-1.5 0-2.7-.8-2.7-2.8zM162.8 14.4h1.5v5.7c.6-1.1 1.7-1.9 3.3-1.9 2.4 0 3.7 1.6 3.7 3.9v6h-1.5v-5.7c0-1.8-1-2.9-2.7-2.9-1.7 0-2.9 1.2-2.9 3.1v5.6h-1.5V14.4zM179.4 23.4c0-2.8 2.1-5.1 5.1-5.1 2.9 0 5.1 2.3 5.1 5 0 2.8-2.2 5.1-5.1 5.1-2.9 0-5.1-2.3-5.1-5zm8.7 0c0-2.1-1.6-3.8-3.6-3.8-2.1 0-3.6 1.7-3.6 3.8 0 2.1 1.5 3.8 3.6 3.8 2.1-.1 3.6-1.8 3.6-3.8zM192.8 19.7h-1.3v-1.3h1.3v-.8c0-1.1.3-2 .8-2.5s1.2-.8 2.1-.8c.7 0 1.1.1 1.6.2v1.3c-.5-.2-.9-.2-1.4-.2-1.1 0-1.7.7-1.7 2.1v.8h3.1v1.2h-3.1v8.5h-1.5v-8.5zM204.4 21.6c0-3.7 2.7-6.9 6.6-6.9 2.2 0 3.6.6 4.9 1.8l-1 1.1c-1-.9-2.1-1.5-4-1.5-2.9 0-5 2.5-5 5.4 0 3.1 2 5.5 5.2 5.5 1.5 0 2.9-.6 3.8-1.3v-3.3h-4v-1.3h5.4v5.3c-1.2 1.1-3.1 2-5.3 2-4 0-6.6-3-6.6-6.8zM219.6 14.7h1.7v1.6h-1.7v-1.6zm.1 3.8h1.5v9.7h-1.5v-9.7zM223.5 18.5h1.6l3.3 8.1 3.3-8.1h1.6l-4.2 9.8h-1.3l-4.3-9.8zM235.6 14.7h1.7v1.6h-1.7v-1.6zm.1 3.8h1.5v9.7h-1.5v-9.7zM240.5 18.5h1.5v1.7c.6-1.1 1.7-1.9 3.3-1.9 2.4 0 3.7 1.6 3.7 3.9v6h-1.5v-5.7c0-1.8-1-2.9-2.7-2.9-1.7 0-2.9 1.2-2.9 3.1v5.6h-1.5v-9.8zM252 29.9l.7-1.1c1.1.8 2.4 1.2 3.8 1.2 2.1 0 3.5-1.2 3.5-3.5v-1.1c-.8 1.1-2 2.1-3.8 2.1-2.3 0-4.6-1.8-4.6-4.6s2.3-4.6 4.6-4.6c1.8 0 3 .9 3.8 2v-1.8h1.4v8c0 1.5-.5 2.7-1.2 3.4-.9.9-2.2 1.3-3.7 1.3-1.7.1-3.2-.4-4.5-1.3zm8-7c0-2-1.7-3.3-3.6-3.3-1.8 0-3.4 1.3-3.4 3.3 0 2 1.6 3.3 3.4 3.3 1.8 0 3.6-1.4 3.6-3.3z"/></g></svg>