<?xml version="1.0" encoding="utf-8"?>
<!-- Generator: Adobe Illustrator 18.1.1, SVG Export Plug-In . SVG Version: 6.00 Build 0)  -->
<!DOCTYPE svg PUBLIC "-//W3C//DTD SVG 1.1//EN" "http://www.w3.org/Graphics/SVG/1.1/DTD/svg11.dtd">
<svg version="1.1" id="Layer_1" xmlns="http://www.w3.org/2000/svg" xmlns:xlink="http://www.w3.org/1999/xlink" x="0px" y="0px"
	 width="292px" height="44px" viewBox="0 0 292 44" enable-background="new 0 0 292 44" xml:space="preserve">
<rect fill="#935D8F" width="292" height="44"/>
<g>
	<path fill="#FFFFFF" d="M28.5,14.9h1.4l6,13.3h-1.6l-1.5-3.5h-7.2l-1.6,3.5h-1.5L28.5,14.9z M32.2,23.4l-3-6.7l-3,6.7H32.2z"/>
	<path fill="#FFFFFF" d="M43.2,15h1.6l3.8,11l3.6-11h1.2L57,26l3.8-11h1.6l-4.7,13.3h-1.3l-3.6-10.7l-3.6,10.7h-1.2L43.2,15z"/>
	<path fill="#FFFFFF" d="M63,23.4L63,23.4c0-2.8,2-5.1,4.7-5.1c2.9,0,4.5,2.3,4.5,5.1c0,0.2,0,0.3,0,0.5h-7.7
		c0.2,2.1,1.7,3.3,3.4,3.3c1.3,0,2.3-0.5,3.1-1.4l0.9,0.8c-1,1.1-2.2,1.8-4,1.8C65.2,28.4,63,26.4,63,23.4z M70.7,22.8
		c-0.2-1.8-1.2-3.3-3.1-3.3c-1.7,0-3,1.4-3.2,3.3H70.7z"/>
	<path fill="#FFFFFF" d="M74.1,23.4L74.1,23.4c0-2.8,2-5.1,4.7-5.1c2.9,0,4.5,2.3,4.5,5.1c0,0.2,0,0.3,0,0.5h-7.7
		c0.2,2.1,1.7,3.3,3.4,3.3c1.3,0,2.3-0.5,3.1-1.4l0.9,0.8c-1,1.1-2.2,1.8-4,1.8C76.3,28.4,74.1,26.4,74.1,23.4z M81.9,22.8
		c-0.2-1.8-1.2-3.3-3.1-3.3c-1.7,0-3,1.4-3.2,3.3H81.9z"/>
	<path fill="#FFFFFF" d="M85.9,14.4h1.5v9.5l5.3-5.5h1.8l-4.1,4.2l4.2,5.6h-1.7l-3.5-4.5l-2,2v2.5h-1.5V14.4z"/>
	<path fill="#FFFFFF" d="M95.9,18.6c0.9-0.3,1.3-0.8,1.3-1.6h-0.7v-2h1.7v1.7c0,1.5-0.7,2.3-2.1,2.6L95.9,18.6z"/>
	<path fill="#FFFFFF" d="M99.9,27l0.7-1c1.1,0.8,2.2,1.2,3.4,1.2c1.2,0,2-0.6,2-1.5v0c0-1-1.1-1.4-2.4-1.7c-1.5-0.4-3.2-1-3.2-2.8v0
		c0-1.7,1.4-2.8,3.3-2.8c1.2,0,2.5,0.4,3.5,1.1l-0.7,1.1c-0.9-0.6-1.9-0.9-2.9-0.9c-1.1,0-1.9,0.6-1.9,1.4v0c0,0.9,1.2,1.3,2.5,1.7
		c1.5,0.5,3.1,1,3.1,2.8v0c0,1.8-1.5,2.9-3.5,2.9C102.5,28.4,101,27.8,99.9,27z"/>
	<path fill="#FFFFFF" d="M115,15h1.6l3.8,11l3.6-11h1.2l3.6,11l3.8-11h1.6l-4.7,13.3h-1.3l-3.6-10.7l-3.6,10.7h-1.2L115,15z"/>
	<path fill="#FFFFFF" d="M134.8,23.4L134.8,23.4c0-2.8,2.1-5.1,5.1-5.1c2.9,0,5.1,2.3,5.1,5v0c0,2.8-2.2,5.1-5.1,5.1
		C136.9,28.4,134.8,26.1,134.8,23.4z M143.4,23.4L143.4,23.4c0-2.1-1.6-3.8-3.6-3.8c-2.1,0-3.6,1.7-3.6,3.8v0c0,2.1,1.5,3.8,3.6,3.8
		C142,27.1,143.4,25.4,143.4,23.4z"/>
	<path fill="#FFFFFF" d="M147.5,18.5h1.5V21c0.7-1.6,2.1-2.8,4-2.7v1.6h-0.1c-2.1,0-3.9,1.5-3.9,4.5v3.9h-1.5V18.5z"/>
	<path fill="#FFFFFF" d="M155.7,25.6v-5.9h-1.4v-1.3h1.4v-2.9h1.5v2.9h3.1v1.3h-3.1v5.7c0,1.2,0.7,1.6,1.6,1.6
		c0.5,0,0.9-0.1,1.4-0.3V28c-0.5,0.3-1.1,0.4-1.8,0.4C156.9,28.4,155.7,27.6,155.7,25.6z"/>
	<path fill="#FFFFFF" d="M162.8,14.4h1.5v5.7c0.6-1.1,1.7-1.9,3.3-1.9c2.4,0,3.7,1.6,3.7,3.9v6h-1.5v-5.7c0-1.8-1-2.9-2.7-2.9
		c-1.7,0-2.9,1.2-2.9,3.1v5.6h-1.5V14.4z"/>
	<path fill="#FFFFFF" d="M179.4,23.4L179.4,23.4c0-2.8,2.1-5.1,5.1-5.1c2.9,0,5.1,2.3,5.1,5v0c0,2.8-2.2,5.1-5.1,5.1
		C181.6,28.4,179.4,26.1,179.4,23.4z M188.1,23.4L188.1,23.4c0-2.1-1.6-3.8-3.6-3.8c-2.1,0-3.6,1.7-3.6,3.8v0c0,2.1,1.5,3.8,3.6,3.8
		C186.6,27.1,188.1,25.4,188.1,23.4z"/>
	<path fill="#FFFFFF" d="M192.8,19.7h-1.3v-1.3h1.3v-0.8c0-1.1,0.3-2,0.8-2.5c0.5-0.5,1.2-0.8,2.1-0.8c0.7,0,1.1,0.1,1.6,0.2v1.3
		c-0.5-0.2-0.9-0.2-1.4-0.2c-1.1,0-1.7,0.7-1.7,2.1v0.8h3.1v1.2h-3.1v8.5h-1.5V19.7z"/>
	<path fill="#FFFFFF" d="M204.4,21.6L204.4,21.6c0-3.7,2.7-6.9,6.6-6.9c2.2,0,3.6,0.6,4.9,1.8l-1,1.1c-1-0.9-2.1-1.5-4-1.5
		c-2.9,0-5,2.5-5,5.4v0c0,3.1,2,5.5,5.2,5.5c1.5,0,2.9-0.6,3.8-1.3v-3.3h-4v-1.3h5.4v5.3c-1.2,1.1-3.1,2-5.3,2
		C207,28.4,204.4,25.4,204.4,21.6z"/>
	<path fill="#FFFFFF" d="M219.6,14.7h1.7v1.6h-1.7V14.7z M219.7,18.5h1.5v9.7h-1.5V18.5z"/>
	<path fill="#FFFFFF" d="M223.5,18.5h1.6l3.3,8.1l3.3-8.1h1.6l-4.2,9.8h-1.3L223.5,18.5z"/>
	<path fill="#FFFFFF" d="M235.6,14.7h1.7v1.6h-1.7V14.7z M235.7,18.5h1.5v9.7h-1.5V18.5z"/>
	<path fill="#FFFFFF" d="M240.5,18.5h1.5v1.7c0.6-1.1,1.7-1.9,3.3-1.9c2.4,0,3.7,1.6,3.7,3.9v6h-1.5v-5.7c0-1.8-1-2.9-2.7-2.9
		c-1.7,0-2.9,1.2-2.9,3.1v5.6h-1.5V18.5z"/>
	<path fill="#FFFFFF" d="M252,29.9l0.7-1.1c1.1,0.8,2.4,1.2,3.8,1.2c2.1,0,3.5-1.2,3.5-3.5v-1.1c-0.8,1.1-2,2.1-3.8,2.1
		c-2.3,0-4.6-1.8-4.6-4.6v0c0-2.8,2.3-4.6,4.6-4.6c1.8,0,3,0.9,3.8,2v-1.8h1.4v8c0,1.5-0.5,2.7-1.2,3.4c-0.9,0.9-2.2,1.3-3.7,1.3
		C254.8,31.3,253.3,30.8,252,29.9z M260,22.9L260,22.9c0-2-1.7-3.3-3.6-3.3c-1.8,0-3.4,1.3-3.4,3.3v0c0,2,1.6,3.3,3.4,3.3
		C258.2,26.2,260,24.8,260,22.9z"/>
</g>
</svg>
